{
.appVersion = "1342";
DisplayStrings = (
"/ecircumflexcaron",
"È"
);
classes = (
{
automatic = 1;
code = "A B C D E F G H I J K L M N O P Q R S T U V W X Y Z Aacute Acaron Agrave Amacron Ccircumflex Chook Eacute Ecaron Ecircumflex Ecircumflexacute Ecircumflexcaron Ecircumflexgrave Ecircumflexmacron Egrave Emacron Iacute Icaron Igrave Iiacute Iicaron Iigrave Iimacron Imacron Macute Mcaron Mgrave Mmacron Nacute Ncaron Ngacute Ngcaron Nggrave Ngmacron Ngrave Ng Nmacron Oacute Ocaron Ograve Omacron Scircumflex Uacute Ucaron Udieresis Udieresisacute Udieresiscaron Udieresisgrave Udieresismacron Ugrave Umacron Zcircumflex Zhook Ii Shook Che-cy";
name = Uppercase;
}
);
copyright = "Derived from _Basically A Sans Serif_.";
customParameters = (
{
name = vendorID;
value = mntl;
},
{
name = panose;
value = (
0,
0,
0,
0,
0,
0,
0,
0,
0,
0
);
},
{
name = unicodeRanges;
value = (
0,
1,
2,
5,
7,
31,
32,
33,
35,
36,
37,
38,
45,
60
);
},
{
name = fsType;
value = (
2
);
},
{
name = blueScale;
value = 0.05;
},
{
name = glyphOrder;
value = (
.notdef,
null,
return,
space,
exclamation,
quotedbl,
numbersign,
dollar,
percent,
ampersand,
quotesingle,
parenleft,
parenright,
asterisk,
plus,
comma,
hyphen,
period,
slash,
colon,
semicolon,
less,
equal,
greater,
question,
at,
A,
B,
C,
D,
E,
F,
G,
H,
I,
J,
K,
L,
M,
N,
O,
P,
Q,
R,
S,
T,
U,
V,
W,
X,
Y,
Z,
backslash,
asciicircum,
underscore,
grave,
a,
b,
c,
d,
e,
f,
g,
h,
i,
j,
k,
l,
m,
n,
o,
p,
q,
r,
s,
t,
u,
v,
w,
x,
y,
z,
braceleft,
bar,
braceright,
tilde,
zero,
one,
two,
three,
four,
five,
six,
seven,
eight,
nine,
sup_zero,
sup_one,
sup_two,
sup_three,
sup_four,
sup_five,
sup_six,
sup_seven,
sup_eight,
sup_nine,
sub_zero,
sub_one,
sub_two,
sub_three,
sub_four,
sub_five,
sub_six,
sub_seven,
sub_eight,
sub_nine,
one_over_four,
one_over_two,
three_over_four,
one_over_three,
two_over_three,
one_over_five,
two_over_five,
three_over_five,
four_over_five,
one_over_six,
five_over_six,
one_over_eight,
three_over_eight,
five_over_eight,

glyphs = (
{
glyphname = .notdef;
lastChange = "2022-02-12 05:18:47 +0000";
layers = (
{
layerId = "FE7E2709-AED5-419E-A84A-17DE8859E7CB";
paths = (
{
closed = 1;
nodes = (
"943 0 LINE",
"943 1080 LINE",
"106 1080 LINE",
"106 0 LINE"
);
},
{
closed = 1;
nodes = (
"525 446 LINE",
"768 111 LINE",
"281 111 LINE"
);
},
{
closed = 1;
nodes = (
"217 868 LINE",
"456 540 LINE",
"217 212 LINE"
);
},
{
closed = 1;
nodes = (
"593 540 LINE",
"833 870 LINE",
"832 212 LINE"
);
},
{
closed = 1;
nodes = (
"281 969 LINE",
"768 969 LINE",
"525 634 LINE"
);
}
);
width = 1049;
}
);
leftMetricsKey = "=H";
note = .notdef;
rightMetricsKey = "=H";
},
{
glyphname = exclamation;
lastChange = "2022-02-12 05:27:49 +0000";
layers = (
{
layerId = "FE7E2709-AED5-419E-A84A-17DE8859E7CB";
paths = (
{
closed = 1;
nodes = (
"254 293 LINE",
"254 1095 LINE",
"143 1095 LINE",
"143 293 LINE"
);
},
{
closed = 1;
nodes = (
"249 -15 OFFCURVE",
"290 26 OFFCURVE",
"290 77 CURVE SMOOTH",
"290 128 OFFCURVE",
"249 169 OFFCURVE",
"198 169 CURVE SMOOTH",
"147 169 OFFCURVE",
"106 128 OFFCURVE",
"106 77 CURVE SMOOTH",
"106 26 OFFCURVE",
"147 -15 OFFCURVE",
"198 -15 CURVE SMOOTH"
);
}
);
width = 396;
}
);
leftMetricsKey = "=H";
note = exclamation;
rightMetricsKey = "=H";
unicode = 0021;
},
{
glyphname = parenleft;
lastChange = "2022-02-11 17:25:09 +0000";
layers = (
{
layerId = "FE7E2709-AED5-419E-A84A-17DE8859E7CB";
paths = (
{
closed = 1;
nodes = (
"442 -111 LINE",
"190 308 OFFCURVE",
"190 832 OFFCURVE",
"442 1252 CURVE",
"314 1252 LINE",
"84 827 OFFCURVE",
"84 314 OFFCURVE",
"314 -111 CURVE"
);
}
);
width = 477;
}
);
leftKerningGroup = parenleft;
note = parenleft;
rightKerningGroup = parenleft;
unicode = 0028;
},
{
glyphname = parenright;
lastChange = "2022-02-11 17:25:09 +0000";
layers = (
{
layerId = "FE7E2709-AED5-419E-A84A-17DE8859E7CB";
paths = (
{
closed = 1;
nodes = (
"163 -111 LINE",
"393 314 OFFCURVE",
"393 827 OFFCURVE",
"163 1252 CURVE",
"36 1252 LINE",
"288 832 OFFCURVE",
"288 308 OFFCURVE",
"36 -111 CURVE"
);
}
);
width = 477;
}
);
leftKerningGroup = parenright;
note = parenright;
rightKerningGroup = parenright;
unicode = 0029;
},
{
glyphname = comma;
lastChange = "2022-02-11 17:25:09 +0000";
layers = (
{
layerId = "FE7E2709-AED5-419E-A84A-17DE8859E7CB";
paths = (
{
closed = 1;
nodes = (
"220 -148 OFFCURVE",
"248 -45 OFFCURVE",
"248 61 CURVE SMOOTH",
"248 177 LINE",
"137 177 LINE",
"137 61 LINE SMOOTH",
"137 -25 OFFCURVE",
"114 -110 OFFCURVE",
"71 -184 CURVE",
"167 -240 LINE"
);
}
);
width = 374;
}
);
leftKerningGroup = comma;
note = comma;
rightKerningGroup = comma;
unicode = 002C;
},
{
glyphname = hyphen;
lastChange = "2022-02-12 05:28:13 +0000";
layers = (
{
layerId = "FE7E2709-AED5-419E-A84A-17DE8859E7CB";
paths = (
{
closed = 1;
nodes = (
"636 434 LINE",
"636 545 LINE",
"106 545 LINE",
"106 434 LINE"
);
}
);
width = 742;
}
);
leftKerningGroup = plus;
leftMetricsKey = "=H";
note = hyphen;
rightKerningGroup = plus;
rightMetricsKey = "=H";
unicode = 002D;
},
{
glyphname = period;
lastChange = "2022-02-11 17:25:09 +0000";
layers = (
{
layerId = "FE7E2709-AED5-419E-A84A-17DE8859E7CB";
paths = (
{
closed = 1;
nodes = (
"234 -15 OFFCURVE",
"275 26 OFFCURVE",
"275 77 CURVE SMOOTH",
"275 128 OFFCURVE",
"234 169 OFFCURVE",
"183 169 CURVE SMOOTH",
"132 169 OFFCURVE",
"91 128 OFFCURVE",
"91 77 CURVE SMOOTH",
"91 26 OFFCURVE",
"132 -15 OFFCURVE",
"183 -15 CURVE SMOOTH"
);
}
);
width = 366;
}
);
leftKerningGroup = comma;
note = period;
rightKerningGroup = comma;
unicode = 002E;
},
{
glyphname = colon;
lastChange = "2022-02-11 17:25:09 +0000";
layers = (
{
layerId = "FE7E2709-AED5-419E-A84A-17DE8859E7CB";
paths = (
{
closed = 1;
nodes = (
"234 608 OFFCURVE",
"275 650 OFFCURVE",
"275 700 CURVE SMOOTH",
"275 751 OFFCURVE",
"234 792 OFFCURVE",
"183 792 CURVE SMOOTH",
"132 792 OFFCURVE",
"91 751 OFFCURVE",
"91 700 CURVE SMOOTH",
"91 650 OFFCURVE",
"132 608 OFFCURVE",
"183 608 CURVE SMOOTH"
);
},
{
closed = 1;
nodes = (
"234 -15 OFFCURVE",
"275 26 OFFCURVE",
"275 77 CURVE SMOOTH",
"275 128 OFFCURVE",
"234 169 OFFCURVE",
"183 169 CURVE SMOOTH",
"132 169 OFFCURVE",
"91 128 OFFCURVE",
"91 77 CURVE SMOOTH",
"91 26 OFFCURVE",
"132 -15 OFFCURVE",
"183 -15 CURVE SMOOTH"
);
}
);
width = 366;
}
);
leftKerningGroup = colon;
note = colon;
rightKerningGroup = colon;
unicode = 003A;
},
{
glyphname = semicolon;
lastChange = "2022-02-11 17:25:09 +0000";
layers = (
{
layerId = "FE7E2709-AED5-419E-A84A-17DE8859E7CB";
paths = (
{
closed = 1;
nodes = (
"220 -148 OFFCURVE",
"248 -45 OFFCURVE",
"248 61 CURVE SMOOTH",
"248 177 LINE",
"137 177 LINE",
"137 61 LINE SMOOTH",
"137 -25 OFFCURVE",
"114 -110 OFFCURVE",
"71 -184 CURVE",
"167 -240 LINE"
);
},
{
closed = 1;
nodes = (
"243 608 OFFCURVE",
"284 650 OFFCURVE",
"284 700 CURVE SMOOTH",
"284 751 OFFCURVE",
"243 792 OFFCURVE",
"192 792 CURVE SMOOTH",
"141 792 OFFCURVE",
"100 751 OFFCURVE",
"100 700 CURVE SMOOTH",
"100 650 OFFCURVE",
"141 608 OFFCURVE",
"192 608 CURVE SMOOTH"
);
}
);
width = 375;
}
);
leftKerningGroup = colon;
note = semicolon;
rightKerningGroup = colon;
unicode = 003B;
},
{
glyphname = question;
lastChange = "2022-02-11 17:25:09 +0000";
layers = (
{
layerId = "FE7E2709-AED5-419E-A84A-17DE8859E7CB";
paths = (
{
closed = 1;
nodes = (
"460 293 LINE",
"460 444 LINE",
"614 470 OFFCURVE",
"732 605 OFFCURVE",
"732 767 CURVE SMOOTH",
"732 948 OFFCURVE",
"585 1095 OFFCURVE",
"404 1095 CURVE SMOOTH",
"223 1095 OFFCURVE",
"76 948 OFFCURVE",
"76 767 CURVE",
"187 767 LINE",
"187 887 OFFCURVE",
"284 984 OFFCURVE",
"404 984 CURVE SMOOTH",
"524 984 OFFCURVE",
"621 887 OFFCURVE",
"621 767 CURVE SMOOTH",
"621 647 OFFCURVE",
"524 550 OFFCURVE",
"404 550 CURVE SMOOTH",
"349 550 LINE",
"349 293 LINE"
);
},
{
closed = 1;
nodes = (
"455 -15 OFFCURVE",
"496 26 OFFCURVE",
"496 77 CURVE SMOOTH",
"496 128 OFFCURVE",
"455 169 OFFCURVE",
"404 169 CURVE SMOOTH",
"353 169 OFFCURVE",
"312 128 OFFCURVE",
"312 77 CURVE SMOOTH",
"312 26 OFFCURVE",
"353 -15 OFFCURVE",
"404 -15 CURVE SMOOTH"
);
}
);
width = 808;
}
);
note = question;
unicode = 003F;
},
{
glyphname = A;
lastChange = "2022-02-11 17:25:09 +0000";
layers = (
{
layerId = "FE7E2709-AED5-419E-A84A-17DE8859E7CB";
paths = (
{
closed = 1;
nodes = (
"136 0 LINE",
"260 300 LINE",
"785 300 LINE",
"910 0 LINE",
"1030 0 LINE",
"583 1080 LINE",
"463 1080 LINE",
"15 0 LINE"
);
},
{
closed = 1;
nodes = (
"523 935 LINE",
"739 411 LINE",
"306 411 LINE"
);
}
);
width = 1045;
}
);
leftKerningGroup = A;
note = A;
rightKerningGroup = A;
unicode = 0041;
},
{
glyphname = B;
lastChange = "2022-02-11 17:25:09 +0000";
layers = (
{
layerId = "FE7E2709-AED5-419E-A84A-17DE8859E7CB";
paths = (
{
closed = 1;
nodes = (
"616 0 LINE SMOOTH",
"780 0 OFFCURVE",
"914 133 OFFCURVE",
"914 298 CURVE SMOOTH",
"914 408 OFFCURVE",
"854 505 OFFCURVE",
"764 556 CURVE",
"828 611 OFFCURVE",
"868 692 OFFCURVE",
"868 782 CURVE SMOOTH",
"868 947 OFFCURVE",
"735 1080 OFFCURVE",
"571 1080 CURVE SMOOTH",
"106 1080 LINE",
"106 0 LINE"
);
},
{
closed = 1;
nodes = (
"217 484 LINE",
"616 484 LINE SMOOTH",
"719 484 OFFCURVE",
"803 401 OFFCURVE",
"803 298 CURVE SMOOTH",
"803 195 OFFCURVE",
"719 111 OFFCURVE",
"616 111 CURVE SMOOTH",
"217 111 LINE"
);
},
{
closed = 1;
nodes = (
"217 969 LINE",
"571 969 LINE SMOOTH",
"674 969 OFFCURVE",
"757 885 OFFCURVE",
"757 782 CURVE SMOOTH",
"757 679 OFFCURVE",
"674 596 OFFCURVE",
"571 596 CURVE SMOOTH",
"217 596 LINE"
);
}
);
width = 975;
}
);
leftMetricsKey = "=H";
note = B;
unicode = 0042;
},
{
glyphname = C;
lastChange = "2022-02-11 17:25:09 +0000";
layers = (
{
layerId = "FE7E2709-AED5-419E-A84A-17DE8859E7CB";
paths = (
{
closed = 1;
nodes = (
"851 -15 OFFCURVE",
"1046 120 OFFCURVE",
"1132 313 CURVE",
"1007 313 LINE",
"930 183 OFFCURVE",
"788 96 OFFCURVE",
"626 96 CURVE SMOOTH",
"381 96 OFFCURVE",
"182 295 OFFCURVE",
"182 540 CURVE SMOOTH",
"182 785 OFFCURVE",
"381 984 OFFCURVE",
"626 984 CURVE SMOOTH",
"788 984 OFFCURVE",
"930 897 OFFCURVE",
"1007 767 CURVE",
"1132 767 LINE",
"1046 960 OFFCURVE",
"851 1095 OFFCURVE",
"626 1095 CURVE SMOOTH",
"320 1095 OFFCURVE",
"71 846 OFFCURVE",
"71 540 CURVE SMOOTH",
"71 234 OFFCURVE",
"320 -15 OFFCURVE",
"626 -15 CURVE SMOOTH"
);
}
);
width = 1209;
}
);
leftKerningGroup = C;
note = C;
rightKerningGroup = C;
unicode = 0043;
},
{
glyphname = D;
lastChange = "2022-02-11 17:25:09 +0000";
layers = (
{
layerId = "FE7E2709-AED5-419E-A84A-17DE8859E7CB";
paths = (
{
closed = 1;
nodes = (
"495 0 LINE SMOOTH",
"793 0 OFFCURVE",
"1035 242 OFFCURVE",
"1035 540 CURVE SMOOTH",
"1035 838 OFFCURVE",
"793 1080 OFFCURVE",
"495 1080 CURVE SMOOTH",
"106 1080 LINE",
"106 0 LINE"
);
},
{
closed = 1;
nodes = (
"217 969 LINE",
"495 969 LINE SMOOTH",
"732 969 OFFCURVE",
"924 777 OFFCURVE",
"924 540 CURVE SMOOTH",
"924 303 OFFCURVE",
"732 111 OFFCURVE",
"495 111 CURVE SMOOTH",
"217 111 LINE"
);
}
);
width = 1106;
}
);
leftMetricsKey = "=H";
note = D;
rightKerningGroup = D;
unicode = 0044;
},
{
glyphname = E;
lastChange = "2022-02-11 17:25:09 +0000";
layers = (
{
layerId = "FE7E2709-AED5-419E-A84A-17DE8859E7CB";
paths = (
{
closed = 1;
nodes = (
"853 0 LINE",
"853 111 LINE",
"217 111 LINE",
"217 484 LINE",
"793 484 LINE",
"793 596 LINE",
"217 596 LINE",
"217 969 LINE",
"853 969 LINE",
"853 1080 LINE",
"106 1080 LINE",
"106 0 LINE"
);
}
);
width = 944;
}
);
leftMetricsKey = "=H";
note = E;
rightKerningGroup = E;
unicode = 0045;
},
{
glyphname = F;
lastChange = "2022-02-11 17:25:09 +0000";
layers = (
{
layerId = "FE7E2709-AED5-419E-A84A-17DE8859E7CB";
paths = (
{
closed = 1;
nodes = (
"217 0 LINE",
"217 484 LINE",
"778 484 LINE",
"778 596 LINE",
"217 596 LINE",
"217 969 LINE",
"838 969 LINE",
"838 1080 LINE",
"106 1080 LINE",
"106 0 LINE"
);
}
);
width = 914;
}
);
leftMetricsKey = "=H";
note = F;
unicode = 0046;
},
{
glyphname = G;
lastChange = "2022-02-11 17:25:09 +0000";
layers = (
{
layerId = "FE7E2709-AED5-419E-A84A-17DE8859E7CB";
paths = (
{
closed = 1;
nodes = (
"932 -15 OFFCURVE",
"1181 234 OFFCURVE",
"1181 540 CURVE SMOOTH",
"1181 550 LINE",
"626 550 LINE",
"626 439 LINE",
"1058 439 LINE",
"1013 243 OFFCURVE",
"836 96 OFFCURVE",
"626 96 CURVE SMOOTH",
"381 96 OFFCURVE",
"182 295 OFFCURVE",
"182 540 CURVE SMOOTH",
"182 785 OFFCURVE",
"381 984 OFFCURVE",
"626 984 CURVE SMOOTH",
"782 984 OFFCURVE",
"919 904 OFFCURVE",
"998 782 CURVE",
"1125 782 LINE",
"1035 967 OFFCURVE",
"845 1095 OFFCURVE",
"626 1095 CURVE SMOOTH",
"320 1095 OFFCURVE",
"71 846 OFFCURVE",
"71 540 CURVE SMOOTH",
"71 234 OFFCURVE",
"320 -15 OFFCURVE",
"626 -15 CURVE SMOOTH"
);
}
);
width = 1252;
}
);
leftKerningGroup = C;
note = G;
rightKerningGroup = D;
unicode = 0047;
},
{
glyphname = H;
lastChange = "2022-02-11 17:25:09 +0000";
layers = (
{
layerId = "FE7E2709-AED5-419E-A84A-17DE8859E7CB";
paths = (
{
closed = 1;
nodes = (
"217 0 LINE",
"217 484 LINE",
"833 484 LINE",
"833 0 LINE",
"944 0 LINE",
"944 1080 LINE",
"833 1080 LINE",
"833 596 LINE",
"217 596 LINE",
"217 1080 LINE",
"106 1080 LINE",
"106 0 LINE"
);
}
);
width = 1050;
}
);
note = H;
unicode = 0048;
},
{
glyphname = I;
lastChange = "2022-02-11 17:25:09 +0000";
layers = (
{
layerId = "FE7E2709-AED5-419E-A84A-17DE8859E7CB";
paths = (
{
closed = 1;
nodes = (
"217 0 LINE",
"217 1080 LINE",
"106 1080 LINE",
"106 0 LINE"
);
}
);
width = 323;
}
);
leftKerningGroup = I;
leftMetricsKey = "=H";
note = I;
rightKerningGroup = I;
rightMetricsKey = "=H";
unicode = 0049;
},
{
glyphname = J;
lastChange = "2022-02-11 17:25:09 +0000";
layers = (
{
layerId = "FE7E2709-AED5-419E-A84A-17DE8859E7CB";
paths = (
{
closed = 1;
nodes = (
"617 0 OFFCURVE",
"778 161 OFFCURVE",
"778 358 CURVE SMOOTH",
"778 1080 LINE",
"667 1080 LINE",
"667 358 LINE SMOOTH",
"667 222 OFFCURVE",
"556 111 OFFCURVE",
"419 111 CURVE SMOOTH",
"283 111 OFFCURVE",
"172 222 OFFCURVE",
"172 358 CURVE",
"61 358 LINE",
"61 161 OFFCURVE",
"221 0 OFFCURVE",
"419 0 CURVE SMOOTH"
);
}
);
width = 869;
}
);
note = J;
unicode = 004A;
},
{
glyphname = K;
lastChange = "2022-02-11 17:25:09 +0000";
layers = (
{
layerId = "FE7E2709-AED5-419E-A84A-17DE8859E7CB";
paths = (
{
closed = 1;
nodes = (
"217 0 LINE",
"217 484 LINE",
"771 0 LINE",
"939 0 LINE",
"322 540 LINE",
"939 1080 LINE",
"771 1080 LINE",
"217 596 LINE",
"217 1080 LINE",
"106 1080 LINE",
"106 0 LINE"
);
}
);
width = 985;
}
);
leftMetricsKey = "=H";
note = K;
unicode = 004B;
},
{
glyphname = L;
lastChange = "2022-02-11 17:25:09 +0000";
layers = (
{
layerId = "FE7E2709-AED5-419E-A84A-17DE8859E7CB";
paths = (
{
closed = 1;
nodes = (
"823 0 LINE",
"823 111 LINE",
"217 111 LINE",
"217 1080 LINE",
"106 1080 LINE",
"106 0 LINE"
);
}
);
width = 869;
}
);
leftMetricsKey = "=H";
note = L;
unicode = 004C;
},
{
glyphname = M;
lastChange = "2022-02-11 17:25:09 +0000";
layers = (
{
layerId = "FE7E2709-AED5-419E-A84A-17DE8859E7CB";
paths = (
{
closed = 1;
nodes = (
"217 0 LINE",
"217 881 LINE",
"549 286 LINE",
"660 286 LINE",
"992 881 LINE",
"992 0 LINE",
"1103 0 LINE",
"1103 1080 LINE",
"976 1080 LINE",
"605 415 LINE",
"233 1080 LINE",
"106 1080 LINE",
"106 0 LINE"
);
}
);
width = 1209;
}
);
leftMetricsKey = "=H";
note = M;
rightMetricsKey = "=H";
unicode = 004D;
},
{
glyphname = N;
lastChange = "2022-02-11 17:25:09 +0000";
layers = (
{
layerId = "FE7E2709-AED5-419E-A84A-17DE8859E7CB";
paths = (
{
closed = 1;
nodes = (
"217 0 LINE",
"217 891 LINE",
"862 0 LINE",
"973 0 LINE",
"973 1080 LINE",
"862 1080 LINE",
"862 189 LINE",
"217 1080 LINE",
"106 1080 LINE",
"106 0 LINE"
);
}
);
width = 1079;
}
);
leftMetricsKey = "=H";
note = N;
rightMetricsKey = "=H";
unicode = 004E;
},
{
glyphname = O;
lastChange = "2022-02-11 17:25:09 +0000";
layers = (
{
layerId = "FE7E2709-AED5-419E-A84A-17DE8859E7CB";
paths = (
{
closed = 1;
nodes = (
"932 -15 OFFCURVE",
"1181 234 OFFCURVE",
"1181 540 CURVE SMOOTH",
"1181 846 OFFCURVE",
"932 1095 OFFCURVE",
"626 1095 CURVE SMOOTH",
"320 1095 OFFCURVE",
"71 846 OFFCURVE",
"71 540 CURVE SMOOTH",
"71 234 OFFCURVE",
"320 -15 OFFCURVE",
"626 -15 CURVE SMOOTH"
);
},
{
closed = 1;
nodes = (
"381 96 OFFCURVE",
"182 295 OFFCURVE",
"182 540 CURVE SMOOTH",
"182 785 OFFCURVE",
"381 984 OFFCURVE",
"626 984 CURVE SMOOTH",
"871 984 OFFCURVE",
"1070 785 OFFCURVE",
"1070 540 CURVE SMOOTH",
"1070 295 OFFCURVE",
"871 96 OFFCURVE",
"626 96 CURVE SMOOTH"
);
}
);
width = 1252;
}
);
leftKerningGroup = C;
note = O;
rightKerningGroup = D;
unicode = 004F;
},
{
glyphname = P;
lastChange = "2022-02-11 17:25:09 +0000";
layers = (
{
layerId = "FE7E2709-AED5-419E-A84A-17DE8859E7CB";
paths = (
{
closed = 1;
nodes = (
"217 0 LINE",
"217 389 LINE",
"553 389 LINE SMOOTH",
"744 389 OFFCURVE",
"899 544 OFFCURVE",
"899 735 CURVE SMOOTH",
"899 925 OFFCURVE",
"744 1080 OFFCURVE",
"553 1080 CURVE SMOOTH",
"106 1080 LINE",
"106 0 LINE"
);
},
{
closed = 1;
nodes = (
"217 969 LINE",
"553 969 LINE SMOOTH",
"683 969 OFFCURVE",
"788 864 OFFCURVE",
"788 735 CURVE SMOOTH",
"788 605 OFFCURVE",
"683 500 OFFCURVE",
"553 500 CURVE SMOOTH",
"217 500 LINE"
);
}
);
width = 975;
}
);
leftMetricsKey = "=H";
note = P;
unicode = 0050;
},
{
glyphname = Q;
lastChange = "2022-02-11 17:25:09 +0000";
layers = (
{
layerId = "FE7E2709-AED5-419E-A84A-17DE8859E7CB";
paths = (
{
closed = 1;
nodes = (
"749 -15 OFFCURVE",
"862 25 OFFCURVE",
"954 93 CURVE",
"1038 0 LINE",
"1187 0 LINE",
"1037 167 LINE",
"1126 265 OFFCURVE",
"1181 396 OFFCURVE",
"1181 540 CURVE SMOOTH",
"1181 846 OFFCURVE",
"932 1095 OFFCURVE",
"626 1095 CURVE SMOOTH",
"320 1095 OFFCURVE",
"71 846 OFFCURVE",
"71 540 CURVE SMOOTH",
"71 234 OFFCURVE",
"320 -15 OFFCURVE",
"626 -15 CURVE SMOOTH"
);
},
{
closed = 1;
nodes = (
"381 96 OFFCURVE",
"182 295 OFFCURVE",
"182 540 CURVE SMOOTH",
"182 785 OFFCURVE",
"381 984 OFFCURVE",
"626 984 CURVE SMOOTH",
"871 984 OFFCURVE",
"1070 785 OFFCURVE",
"1070 540 CURVE SMOOTH",
"1070 429 OFFCURVE",
"1029 328 OFFCURVE",
"962 250 CURVE",
"800 430 LINE",
"651 430 LINE",
"879 176 LINE",
"808 125 OFFCURVE",
"720 96 OFFCURVE",
"626 96 CURVE SMOOTH"
);
}
);
width = 1246;
}
);
leftKerningGroup = C;
note = Q;
unicode = 0051;
},
{
glyphname = R;
lastChange = "2022-02-11 17:25:09 +0000";
layers = (
{
layerId = "FE7E2709-AED5-419E-A84A-17DE8859E7CB";
paths = (
{
closed = 1;
nodes = (
"217 0 LINE",
"217 389 LINE",
"525 389 LINE",
"807 0 LINE",
"944 0 LINE",
"652 404 LINE",
"794 446 OFFCURVE",
"899 578 OFFCURVE",
"899 735 CURVE SMOOTH",
"899 925 OFFCURVE",
"744 1080 OFFCURVE",
"553 1080 CURVE SMOOTH",
"106 1080 LINE",
"106 0 LINE"
);
},
{
closed = 1;
nodes = (
"217 969 LINE",
"553 969 LINE SMOOTH",
"683 969 OFFCURVE",
"788 864 OFFCURVE",
"788 735 CURVE SMOOTH",
"788 605 OFFCURVE",
"683 500 OFFCURVE",
"553 500 CURVE SMOOTH",
"217 500 LINE"
);
}
);
width = 980;
}
);
note = R;
unicode = 0052;
},
{
glyphname = S;
lastChange = "2022-02-11 17:25:09 +0000";
layers = (
{
layerId = "FE7E2709-AED5-419E-A84A-17DE8859E7CB";
paths = (
{
closed = 1;
nodes = (
"716 -15 OFFCURVE",
"904 123 OFFCURVE",
"904 293 CURVE SMOOTH",
"904 441 OFFCURVE",
"762 565 OFFCURVE",
"573 595 CURVE SMOOTH",
"421 619 LINE SMOOTH",
"300 638 OFFCURVE",
"210 711 OFFCURVE",
"210 799 CURVE SMOOTH",
"210 901 OFFCURVE",
"333 984 OFFCURVE",
"485 984 CURVE SMOOTH",
"636 984 OFFCURVE",
"760 901 OFFCURVE",
"760 799 CURVE",
"873 799 LINE",
"873 962 OFFCURVE",
"699 1095 OFFCURVE",
"485 1095 CURVE SMOOTH",
"270 1095 OFFCURVE",
"96 962 OFFCURVE",
"96 799 CURVE SMOOTH",
"96 656 OFFCURVE",
"229 537 OFFCURVE",
"406 509 CURVE SMOOTH",
"558 485 LINE SMOOTH",
"691 464 OFFCURVE",
"790 386 OFFCURVE",
"790 293 CURVE SMOOTH",
"790 184 OFFCURVE",
"653 96 OFFCURVE",
"485 96 CURVE SMOOTH",
"316 96 OFFCURVE",
"180 184 OFFCURVE",
"180 293 CURVE",
"66 293 LINE",
"66 123 OFFCURVE",
"254 -15 OFFCURVE",
"485 -15 CURVE SMOOTH"
);
}
);
width = 970;
}
);
leftKerningGroup = dollar;
note = S;
rightKerningGroup = dollar;
unicode = 0053;
},
{
glyphname = T;
lastChange = "2022-02-11 17:25:09 +0000";
layers = (
{
layerId = "FE7E2709-AED5-419E-A84A-17DE8859E7CB";
paths = (
{
closed = 1;
nodes = (
"535 0 LINE",
"535 969 LINE",
"899 969 LINE",
"899 1080 LINE",
"61 1080 LINE",
"61 969 LINE",
"424 969 LINE",
"424 0 LINE"
);
}
);
width = 960;
}
);
note = T;
unicode = 0054;
},
{
glyphname = U;
lastChange = "2022-02-11 17:25:09 +0000";
layers = (
{
layerId = "FE7E2709-AED5-419E-A84A-17DE8859E7CB";
paths = (
{
closed = 1;
nodes = (
"757 -15 OFFCURVE",
"949 177 OFFCURVE",
"949 414 CURVE SMOOTH",
"949 1080 LINE",
"838 1080 LINE",
"838 414 LINE SMOOTH",
"838 238 OFFCURVE",
"696 96 OFFCURVE",
"520 96 CURVE SMOOTH",
"345 96 OFFCURVE",
"202 238 OFFCURVE",
"202 414 CURVE SMOOTH",
"202 1080 LINE",
"91 1080 LINE",
"91 414 LINE SMOOTH",
"91 177 OFFCURVE",
"283 -15 OFFCURVE",
"520 -15 CURVE SMOOTH"
);
}
);
width = 1040;
}
);
leftKerningGroup = U;
note = U;
rightKerningGroup = U;
unicode = 0055;
},
{
glyphname = V;
lastChange = "2022-02-11 17:25:09 +0000";
layers = (
{
layerId = "FE7E2709-AED5-419E-A84A-17DE8859E7CB";
paths = (
{
closed = 1;
nodes = (
"580 0 LINE",
"1020 1080 LINE",
"900 1080 LINE",
"520 147 LINE",
"140 1080 LINE",
"21 1080 LINE",
"460 0 LINE"
);
}
);
width = 1040;
}
);
note = V;
unicode = 0056;
},
{
glyphname = W;
lastChange = "2022-02-11 17:25:09 +0000";
layers = (
{
layerId = "FE7E2709-AED5-419E-A84A-17DE8859E7CB";
paths = (
{
closed = 1;
nodes = (
"472 0 LINE",
"745 890 LINE",
"1017 0 LINE",
"1133 0 LINE",
"1464 1080 LINE",
"1348 1080 LINE",
"1075 190 LINE",
"803 1080 LINE",
"687 1080 LINE",
"414 190 LINE",
"142 1080 LINE",
"26 1080 LINE",
"356 0 LINE"
);
}
);
width = 1489;
}
);
leftKerningGroup = W;
note = W;
rightKerningGroup = W;
unicode = 0057;
},
{
glyphname = X;
lastChange = "2022-02-11 17:25:09 +0000";
layers = (
{
layerId = "FE7E2709-AED5-419E-A84A-17DE8859E7CB";
paths = (
{
closed = 1;
nodes = (
"183 0 LINE",
"508 446 LINE",
"832 0 LINE",
"969 0 LINE",
"576 540 LINE",
"969 1080 LINE",
"832 1080 LINE",
"508 634 LINE",
"183 1080 LINE",
"46 1080 LINE",
"439 540 LINE",
"46 0 LINE"
);
}
);
width = 1015;
}
);
note = X;
unicode = 0058;
},
{
glyphname = Y;
lastChange = "2022-02-11 17:25:09 +0000";
layers = (
{
layerId = "FE7E2709-AED5-419E-A84A-17DE8859E7CB";
paths = (
{
closed = 1;
nodes = (
"541 0 LINE",
"541 411 LINE",
"941 1080 LINE",
"811 1080 LINE",
"486 535 LINE",
"160 1080 LINE",
"31 1080 LINE",
"430 411 LINE",
"430 0 LINE"
);
}
);
width = 971;
}
);
leftKerningGroup = Y;
note = Y;
rightKerningGroup = Y;
unicode = 0059;
},
{
glyphname = Z;
lastChange = "2022-02-11 17:25:09 +0000";
layers = (
{
layerId = "FE7E2709-AED5-419E-A84A-17DE8859E7CB";
paths = (
{
closed = 1;
nodes = (
"853 0 LINE",
"853 111 LINE",
"214 111 LINE",
"853 969 LINE",
"853 1080 LINE",
"76 1080 LINE",
"76 969 LINE",
"715 969 LINE",
"76 111 LINE",
"76 0 LINE"
);
}
);
width = 929;
}
);
leftKerningGroup = Z;
note = Z;
rightKerningGroup = Z;
unicode = 005A;
},
{
glyphname = grave;
lastChange = "2022-02-11 17:25:09 +0000";
layers = (
{
layerId = "FE7E2709-AED5-419E-A84A-17DE8859E7CB";
paths = (
{
closed = 1;
nodes = (
"348 944 LINE",
"202 1201 LINE",
"106 1201 LINE",
"252 944 LINE"
);
}
);
width = 454;
}
);
note = grave;
unicode = "0060,0300";
},
{
glyphname = a;
lastChange = "2022-02-12 05:29:01 +0000";
layers = (
{
layerId = "FE7E2709-AED5-419E-A84A-17DE8859E7CB";
paths = (
{
closed = 1;
nodes = (
"590 -15 OFFCURVE",
"694 33 OFFCURVE",
"767 111 CURVE",
"767 0 LINE",
"878 0 LINE",
"878 777 LINE",
"767 777 LINE",
"767 666 LINE",
"694 744 OFFCURVE",
"590 792 OFFCURVE",
"475 792 CURVE SMOOTH",
"252 792 OFFCURVE",
"71 611 OFFCURVE",
"71 389 CURVE SMOOTH",
"71 166 OFFCURVE",
"252 -15 OFFCURVE",
"475 -15 CURVE SMOOTH"
);
},
{
closed = 1;
nodes = (
"313 96 OFFCURVE",
"182 227 OFFCURVE",
"182 389 CURVE SMOOTH",
"182 550 OFFCURVE",
"313 681 OFFCURVE",
"475 681 CURVE SMOOTH",
"636 681 OFFCURVE",
"767 550 OFFCURVE",
"767 389 CURVE SMOOTH",
"767 227 OFFCURVE",
"636 96 OFFCURVE",
"475 96 CURVE SMOOTH"
);
}
);
width = 984;
}
);
leftKerningGroup = a;
leftMetricsKey = "=o";
note = a;
rightKerningGroup = a;
rightMetricsKey = "=H";
unicode = 0061;
},
{
glyphname = b;
lastChange = "2022-02-12 05:29:08 +0000";
layers = (
{
layerId = "FE7E2709-AED5-419E-A84A-17DE8859E7CB";
paths = (
{
closed = 1;
nodes = (
"733 -15 OFFCURVE",
"914 166 OFFCURVE",
"914 389 CURVE SMOOTH",
"914 611 OFFCURVE",
"733 792 OFFCURVE",
"510 792 CURVE SMOOTH",
"395 792 OFFCURVE",
"291 744 OFFCURVE",
"217 666 CURVE",
"217 1141 LINE",
"106 1141 LINE",
"106 0 LINE",
"217 0 LINE",
"217 111 LINE",
"291 33 OFFCURVE",
"395 -15 OFFCURVE",
"510 -15 CURVE SMOOTH"
);
},
{
closed = 1;
nodes = (
"348 96 OFFCURVE",
"217 227 OFFCURVE",
"217 389 CURVE SMOOTH",
"217 550 OFFCURVE",
"348 681 OFFCURVE",
"510 681 CURVE SMOOTH",
"671 681 OFFCURVE",
"802 550 OFFCURVE",
"802 389 CURVE SMOOTH",
"802 227 OFFCURVE",
"671 96 OFFCURVE",
"510 96 CURVE SMOOTH"
);
}
);
width = 985;
}
);
leftMetricsKey = "=H";
note = b;
rightKerningGroup = b;
rightMetricsKey = "=o";
unicode = 0062;
},
{
glyphname = c;
lastChange = "2022-02-12 05:29:13 +0000";
layers = (
{
layerId = "FE7E2709-AED5-419E-A84A-17DE8859E7CB";
paths = (
{
closed = 1;
nodes = (
"644 -15 OFFCURVE",
"789 89 OFFCURVE",
"849 237 CURVE",
"725 237 LINE",
"674 153 OFFCURVE",
"581 96 OFFCURVE",
"475 96 CURVE SMOOTH",
"313 96 OFFCURVE",
"182 227 OFFCURVE",
"182 389 CURVE SMOOTH",
"182 550 OFFCURVE",
"313 681 OFFCURVE",
"475 681 CURVE SMOOTH",
"581 681 OFFCURVE",
"674 625 OFFCURVE",
"725 540 CURVE",
"849 540 LINE",
"789 688 OFFCURVE",
"644 792 OFFCURVE",
"475 792 CURVE SMOOTH",
"252 792 OFFCURVE",
"71 611 OFFCURVE",
"71 389 CURVE SMOOTH",
"71 166 OFFCURVE",
"252 -15 OFFCURVE",
"475 -15 CURVE SMOOTH"
);
}
);
width = 925;
}
);
leftKerningGroup = a;
leftMetricsKey = "=o";
note = c;
rightKerningGroup = b;
unicode = 0063;
},
{
glyphname = d;
lastChange = "2022-02-12 05:29:17 +0000";
layers = (
{
layerId = "FE7E2709-AED5-419E-A84A-17DE8859E7CB";
paths = (
{
closed = 1;
nodes = (
"590 -15 OFFCURVE",
"694 33 OFFCURVE",
"767 111 CURVE",
"767 0 LINE",
"878 0 LINE",
"878 1141 LINE",
"767 1141 LINE",
"767 666 LINE",
"694 744 OFFCURVE",
"590 792 OFFCURVE",
"475 792 CURVE SMOOTH",
"252 792 OFFCURVE",
"71 611 OFFCURVE",
"71 389 CURVE SMOOTH",
"71 166 OFFCURVE",
"252 -15 OFFCURVE",
"475 -15 CURVE SMOOTH"
);
},
{
closed = 1;
nodes = (
"313 96 OFFCURVE",
"182 227 OFFCURVE",
"182 389 CURVE SMOOTH",
"182 550 OFFCURVE",
"313 681 OFFCURVE",
"475 681 CURVE SMOOTH",
"636 681 OFFCURVE",
"767 550 OFFCURVE",
"767 389 CURVE SMOOTH",
"767 227 OFFCURVE",
"636 96 OFFCURVE",
"475 96 CURVE SMOOTH"
);
}
);
width = 984;
}
);
leftKerningGroup = a;
leftMetricsKey = "=o";
note = d;
rightMetricsKey = "=H";
unicode = 0064;
},
{
glyphname = e;
lastChange = "2022-02-12 05:29:27 +0000";
layers = (
{
layerId = "FE7E2709-AED5-419E-A84A-17DE8859E7CB";
paths = (
{
closed = 1;
nodes = (
"642 -15 OFFCURVE",
"785 87 OFFCURVE",
"846 231 CURVE",
"721 231 LINE",
"669 150 OFFCURVE",
"578 96 OFFCURVE",
"475 96 CURVE SMOOTH",
"330 96 OFFCURVE",
"210 201 OFFCURVE",
"186 339 CURVE",
"875 339 LINE",
"877 355 OFFCURVE",
"878 372 OFFCURVE",
"878 389 CURVE SMOOTH",
"878 611 OFFCURVE",
"697 792 OFFCURVE",
"475 792 CURVE SMOOTH",
"252 792 OFFCURVE",
"71 611 OFFCURVE",
"71 389 CURVE SMOOTH",
"71 166 OFFCURVE",
"252 -15 OFFCURVE",
"475 -15 CURVE SMOOTH"
);
},
{
closed = 1;
nodes = (
"217 582 OFFCURVE",
"334 681 OFFCURVE",
"475 681 CURVE SMOOTH",
"615 681 OFFCURVE",
"733 582 OFFCURVE",
"761 450 CURVE",
"188 450 LINE"
);
}
);
width = 949;
}
);
leftKerningGroup = a;
leftMetricsKey = "=o";
note = e;
rightKerningGroup = b;
rightMetricsKey = "=o";
unicode = 0065;
},
{
glyphname = f;
lastChange = "2022-02-11 17:25:09 +0000";
layers = (
{
layerId = "FE7E2709-AED5-419E-A84A-17DE8859E7CB";
paths = (
{
closed = 1;
nodes = (
"270 0 LINE",
"270 666 LINE",
"480 666 LINE",
"480 777 LINE",
"270 777 LINE",
"270 922 LINE SMOOTH",
"270 981 OFFCURVE",
"318 1030 OFFCURVE",
"378 1030 CURVE SMOOTH",
"480 1030 LINE",
"480 1141 LINE",
"378 1141 LINE SMOOTH",
"257 1141 OFFCURVE",
"159 1043 OFFCURVE",
"159 922 CURVE SMOOTH",
"159 777 LINE",
"51 777 LINE",
"51 666 LINE",
"159 666 LINE",
"159 0 LINE"
);
}
);
width = 541;
}
);
note = f;
unicode = 0066;
},
{
glyphname = g;
lastChange = "2022-02-12 05:29:33 +0000";
layers = (
{
layerId = "FE7E2709-AED5-419E-A84A-17DE8859E7CB";
paths = (
{
closed = 1;
nodes = (
"700 -434 OFFCURVE",
"878 -255 OFFCURVE",
"878 -35 CURVE SMOOTH",
"878 777 LINE",
"767 777 LINE",
"767 666 LINE",
"694 744 OFFCURVE",
"590 792 OFFCURVE",
"475 792 CURVE SMOOTH",
"252 792 OFFCURVE",
"71 611 OFFCURVE",
"71 389 CURVE SMOOTH",
"71 166 OFFCURVE",
"252 -15 OFFCURVE",
"475 -15 CURVE SMOOTH",
"590 -15 OFFCURVE",
"694 33 OFFCURVE",
"767 111 CURVE",
"767 -35 LINE SMOOTH",
"767 -194 OFFCURVE",
"638 -323 OFFCURVE",
"480 -323 CURVE SMOOTH",
"321 -323 OFFCURVE",
"192 -194 OFFCURVE",
"192 -35 CURVE",
"81 -35 LINE",
"81 -255 OFFCURVE",
"260 -434 OFFCURVE",
"480 -434 CURVE SMOOTH"
);
},
{
closed = 1;
nodes = (
"313 96 OFFCURVE",
"182 227 OFFCURVE",
"182 389 CURVE SMOOTH",
"182 550 OFFCURVE",
"313 681 OFFCURVE",
"475 681 CURVE SMOOTH",
"636 681 OFFCURVE",
"767 550 OFFCURVE",
"767 389 CURVE SMOOTH",
"767 227 OFFCURVE",
"636 96 OFFCURVE",
"475 96 CURVE SMOOTH"
);
}
);
width = 984;
}
);
leftKerningGroup = a;
leftMetricsKey = "=o";
note = g;
rightKerningGroup = a;
rightMetricsKey = "=H";
unicode = 0067;
},
{
glyphname = h;
lastChange = "2022-02-11 17:25:09 +0000";
layers = (
{
layerId = "FE7E2709-AED5-419E-A84A-17DE8859E7CB";
paths = (
{
closed = 1;
nodes = (
"217 0 LINE",
"217 435 LINE SMOOTH",
"217 571 OFFCURVE",
"328 681 OFFCURVE",
"463 681 CURVE SMOOTH",
"599 681 OFFCURVE",
"709 571 OFFCURVE",
"709 435 CURVE SMOOTH",
"709 0 LINE",
"820 0 LINE",
"820 435 LINE SMOOTH",
"820 632 OFFCURVE",
"660 792 OFFCURVE",
"463 792 CURVE SMOOTH",
"368 792 OFFCURVE",
"281 755 OFFCURVE",
"217 694 CURVE",
"217 1141 LINE",
"106 1141 LINE",
"106 0 LINE"
);
}
);
width = 912;
}
);
leftMetricsKey = "=H";
note = h;
rightKerningGroup = h;
unicode = 0068;
},
{
glyphname = i;
lastChange = "2022-02-12 05:29:40 +0000";
layers = (
{
layerId = "FE7E2709-AED5-419E-A84A-17DE8859E7CB";
paths = (
{
closed = 1;
nodes = (
"217 0 LINE",
"217 777 LINE",
"106 777 LINE",
"106 0 LINE"
);
},
{
closed = 1;
nodes = (
"212 906 OFFCURVE",
"252 946 OFFCURVE",
"252 996 CURVE SMOOTH",
"252 1046 OFFCURVE",
"212 1087 OFFCURVE",
"162 1087 CURVE SMOOTH",
"111 1087 OFFCURVE",
"71 1046 OFFCURVE",
"71 996 CURVE SMOOTH",
"71 946 OFFCURVE",
"111 906 OFFCURVE",
"162 906 CURVE SMOOTH"
);
}
);
width = 323;
}
);
leftKerningGroup = i;
leftMetricsKey = "=o";
note = i;
rightKerningGroup = i;
rightMetricsKey = "=o";
unicode = 0069;
},
{
glyphname = j;
lastChange = "2022-02-12 05:29:46 +0000";
layers = (
{
layerId = "FE7E2709-AED5-419E-A84A-17DE8859E7CB";
paths = (
{
closed = 1;
nodes = (
"-37 -419 LINE SMOOTH",
"103 -419 OFFCURVE",
"216 -305 OFFCURVE",
"216 -166 CURVE SMOOTH",
"216 777 LINE",
"105 777 LINE",
"105 -166 LINE SMOOTH",
"105 -244 OFFCURVE",
"41 -308 OFFCURVE",
"-37 -308 CURVE SMOOTH",
"-123 -308 LINE",
"-123 -419 LINE"
);
},
{
closed = 1;
nodes = (
"211 906 OFFCURVE",
"251 946 OFFCURVE",
"251 996 CURVE SMOOTH",
"251 1046 OFFCURVE",
"211 1087 OFFCURVE",
"161 1087 CURVE SMOOTH",
"111 1087 OFFCURVE",
"70 1046 OFFCURVE",
"70 996 CURVE SMOOTH",
"70 946 OFFCURVE",
"111 906 OFFCURVE",
"161 906 CURVE SMOOTH"
);
}
);
width = 322;
}
);
leftKerningGroup = i;
note = j;
rightKerningGroup = i;
rightMetricsKey = "=o";
unicode = 006A;
},
{
glyphname = k;
lastChange = "2022-02-11 17:25:09 +0000";
layers = (
{
layerId = "FE7E2709-AED5-419E-A84A-17DE8859E7CB";
paths = (
{
closed = 1;
nodes = (
"217 0 LINE",
"217 333 LINE",
"615 0 LINE",
"788 0 LINE",
"324 389 LINE",
"788 777 LINE",
"615 777 LINE",
"217 444 LINE",
"217 1141 LINE",
"106 1141 LINE",
"106 0 LINE"
);
}
);
width = 843;
}
);
leftMetricsKey = "=H";
note = k;
unicode = 006B;
},
{
glyphname = l;
lastChange = "2022-02-11 17:25:09 +0000";
layers = (
{
layerId = "FE7E2709-AED5-419E-A84A-17DE8859E7CB";
paths = (
{
closed = 1;
nodes = (
"217 0 LINE",
"217 1141 LINE",
"106 1141 LINE",
"106 0 LINE"
);
}
);
width = 323;
}
);
leftMetricsKey = "=H";
note = l;
rightMetricsKey = "=H";
unicode = 006C;
},
{
glyphname = m;
lastChange = "2022-02-11 17:25:09 +0000";
layers = (
{
layerId = "FE7E2709-AED5-419E-A84A-17DE8859E7CB";
paths = (
{
closed = 1;
nodes = (
"217 0 LINE",
"217 465 LINE SMOOTH",
"217 584 OFFCURVE",
"314 681 OFFCURVE",
"433 681 CURVE SMOOTH",
"552 681 OFFCURVE",
"649 584 OFFCURVE",
"649 465 CURVE SMOOTH",
"649 0 LINE",
"760 0 LINE",
"760 465 LINE SMOOTH",
"760 584 OFFCURVE",
"857 681 OFFCURVE",
"976 681 CURVE SMOOTH",
"1095 681 OFFCURVE",
"1191 584 OFFCURVE",
"1191 465 CURVE SMOOTH",
"1191 0 LINE",
"1302 0 LINE",
"1302 465 LINE SMOOTH",
"1302 646 OFFCURVE",
"1156 792 OFFCURVE",
"976 792 CURVE SMOOTH",
"863 792 OFFCURVE",
"763 735 OFFCURVE",
"704 648 CURVE",
"646 735 OFFCURVE",
"546 792 OFFCURVE",
"433 792 CURVE SMOOTH",
"350 792 OFFCURVE",
"275 761 OFFCURVE",
"217 711 CURVE",
"217 777 LINE",
"106 777 LINE",
"106 0 LINE"
);
}
);
width = 1394;
}
);
leftKerningGroup = m;
leftMetricsKey = "=H";
note = m;
rightKerningGroup = h;
unicode = 006D;
},
{
glyphname = n;
lastChange = "2022-02-11 17:25:09 +0000";
layers = (
{
layerId = "FE7E2709-AED5-419E-A84A-17DE8859E7CB";
paths = (
{
closed = 1;
nodes = (
"217 0 LINE",
"217 435 LINE SMOOTH",
"217 571 OFFCURVE",
"328 681 OFFCURVE",
"463 681 CURVE SMOOTH",
"599 681 OFFCURVE",
"709 571 OFFCURVE",
"709 435 CURVE SMOOTH",
"709 0 LINE",
"820 0 LINE",
"820 435 LINE SMOOTH",
"820 632 OFFCURVE",
"660 792 OFFCURVE",
"463 792 CURVE SMOOTH",
"368 792 OFFCURVE",
"281 755 OFFCURVE",
"217 694 CURVE",
"217 777 LINE",
"106 777 LINE",
"106 0 LINE"
);
}
);
width = 912;
}
);
leftKerningGroup = m;
leftMetricsKey = "=H";
note = n;
rightKerningGroup = h;
unicode = 006E;
},
{
glyphname = o;
lastChange = "2022-02-11 17:25:09 +0000";
layers = (
{
layerId = "FE7E2709-AED5-419E-A84A-17DE8859E7CB";
paths = (
{
closed = 1;
nodes = (
"697 -15 OFFCURVE",
"878 166 OFFCURVE",
"878 389 CURVE SMOOTH",
"878 611 OFFCURVE",
"697 792 OFFCURVE",
"475 792 CURVE SMOOTH",
"252 792 OFFCURVE",
"71 611 OFFCURVE",
"71 389 CURVE SMOOTH",
"71 166 OFFCURVE",
"252 -15 OFFCURVE",
"475 -15 CURVE SMOOTH"
);
},
{
closed = 1;
nodes = (
"313 96 OFFCURVE",
"182 227 OFFCURVE",
"182 389 CURVE SMOOTH",
"182 550 OFFCURVE",
"313 681 OFFCURVE",
"475 681 CURVE SMOOTH",
"636 681 OFFCURVE",
"767 550 OFFCURVE",
"767 389 CURVE SMOOTH",
"767 227 OFFCURVE",
"636 96 OFFCURVE",
"475 96 CURVE SMOOTH"
);
}
);
width = 949;
}
);
leftKerningGroup = a;
note = o;
rightKerningGroup = b;
unicode = 006F;
},
{
glyphname = p;
lastChange = "2022-02-12 05:29:55 +0000";
layers = (
{
layerId = "FE7E2709-AED5-419E-A84A-17DE8859E7CB";
paths = (
{
closed = 1;
nodes = (
"217 -419 LINE",
"217 111 LINE",
"291 33 OFFCURVE",
"395 -15 OFFCURVE",
"510 -15 CURVE SMOOTH",
"733 -15 OFFCURVE",
"914 166 OFFCURVE",
"914 389 CURVE SMOOTH",
"914 611 OFFCURVE",
"733 792 OFFCURVE",
"510 792 CURVE SMOOTH",
"395 792 OFFCURVE",
"291 744 OFFCURVE",
"217 666 CURVE",
"217 777 LINE",
"106 777 LINE",
"106 -419 LINE"
);
},
{
closed = 1;
nodes = (
"348 96 OFFCURVE",
"217 227 OFFCURVE",
"217 389 CURVE SMOOTH",
"217 550 OFFCURVE",
"348 681 OFFCURVE",
"510 681 CURVE SMOOTH",
"671 681 OFFCURVE",
"802 550 OFFCURVE",
"802 389 CURVE SMOOTH",
"802 227 OFFCURVE",
"671 96 OFFCURVE",
"510 96 CURVE SMOOTH"
);
}
);
width = 985;
}
);
leftKerningGroup = m;
leftMetricsKey = "=H";
note = p;
rightKerningGroup = b;
rightMetricsKey = "=o";
unicode = 0070;
},
{
glyphname = q;
lastChange = "2022-02-12 05:29:57 +0000";
layers = (
{
layerId = "FE7E2709-AED5-419E-A84A-17DE8859E7CB";
paths = (
{
closed = 1;
nodes = (
"878 -419 LINE",
"878 777 LINE",
"767 777 LINE",
"767 666 LINE",
"694 744 OFFCURVE",
"590 792 OFFCURVE",
"475 792 CURVE SMOOTH",
"252 792 OFFCURVE",
"71 611 OFFCURVE",
"71 389 CURVE SMOOTH",
"71 166 OFFCURVE",
"252 -15 OFFCURVE",
"475 -15 CURVE SMOOTH",
"590 -15 OFFCURVE",
"694 33 OFFCURVE",
"767 111 CURVE",
"767 -419 LINE"
);
},
{
closed = 1;
nodes = (
"313 96 OFFCURVE",
"182 227 OFFCURVE",
"182 389 CURVE SMOOTH",
"182 550 OFFCURVE",
"313 681 OFFCURVE",
"475 681 CURVE SMOOTH",
"636 681 OFFCURVE",
"767 550 OFFCURVE",
"767 389 CURVE SMOOTH",
"767 227 OFFCURVE",
"636 96 OFFCURVE",
"475 96 CURVE SMOOTH"
);
}
);
width = 984;
}
);
leftKerningGroup = a;
leftMetricsKey = "=o";
note = q;
rightKerningGroup = a;
rightMetricsKey = "=H";
unicode = 0071;
},
{
glyphname = r;
lastChange = "2022-02-11 17:25:09 +0000";
layers = (
{
layerId = "FE7E2709-AED5-419E-A84A-17DE8859E7CB";
paths = (
{
closed = 1;
nodes = (
"217 0 LINE",
"217 394 LINE SMOOTH",
"217 544 OFFCURVE",
"339 666 OFFCURVE",
"490 666 CURVE SMOOTH",
"548 666 LINE",
"548 777 LINE",
"490 777 LINE SMOOTH",
"383 777 OFFCURVE",
"287 734 OFFCURVE",
"217 663 CURVE",
"217 777 LINE",
"106 777 LINE",
"106 0 LINE"
);
}
);
width = 594;
}
);
leftKerningGroup = m;
leftMetricsKey = "=H";
note = r;
unicode = 0072;
},
{
glyphname = s;
lastChange = "2022-02-11 17:25:09 +0000";
layers = (
{
layerId = "FE7E2709-AED5-419E-A84A-17DE8859E7CB";
paths = (
{
closed = 1;
nodes = (
"628 -19 OFFCURVE",
"788 85 OFFCURVE",
"788 214 CURVE SMOOTH",
"788 328 OFFCURVE",
"664 423 OFFCURVE",
"500 444 CURVE SMOOTH",
"375 460 LINE SMOOTH",
"277 472 OFFCURVE",
"204 517 OFFCURVE",
"204 571 CURVE",
"91 571 LINE",
"91 461 OFFCURVE",
"210 370 OFFCURVE",
"367 350 CURVE SMOOTH",
"492 334 LINE SMOOTH",
"597 320 OFFCURVE",
"675 272 OFFCURVE",
"675 214 CURVE SMOOTH",
"675 146 OFFCURVE",
"566 91 OFFCURVE",
"432 91 CURVE SMOOTH",
"298 91 OFFCURVE",
"189 146 OFFCURVE",
"189 214 CURVE",
"76 214 LINE",
"76 85 OFFCURVE",
"235 -19 OFFCURVE",
"432 -19 CURVE SMOOTH"
);
},
{
closed = 1;
nodes = (
"204 571 LINE",
"204 635 OFFCURVE",
"306 686 OFFCURVE",
"432 686 CURVE SMOOTH",
"558 686 OFFCURVE",
"660 635 OFFCURVE",
"660 571 CURVE",
"772 571 LINE",
"772 696 OFFCURVE",
"620 797 OFFCURVE",
"432 797 CURVE SMOOTH",
"244 797 OFFCURVE",
"91 696 OFFCURVE",
"91 571 CURVE"
);
}
);
width = 864;
}
);
leftKerningGroup = s;
note = s;
rightKerningGroup = s;
unicode = 0073;
},
{
glyphname = t;
lastChange = "2022-02-11 17:25:09 +0000";
layers = (
{
layerId = "FE7E2709-AED5-419E-A84A-17DE8859E7CB";
paths = (
{
closed = 1;
nodes = (
"495 0 LINE",
"495 111 LINE",
"408 111 LINE SMOOTH",
"340 111 OFFCURVE",
"285 166 OFFCURVE",
"285 234 CURVE SMOOTH",
"285 666 LINE",
"495 666 LINE",
"495 777 LINE",
"285 777 LINE",
"285 965 LINE",
"174 965 LINE",
"174 777 LINE",
"66 777 LINE",
"66 666 LINE",
"174 666 LINE",
"174 234 LINE SMOOTH",
"174 105 OFFCURVE",
"279 0 OFFCURVE",
"408 0 CURVE SMOOTH"
);
}
);
width = 566;
}
);
note = t;
unicode = 0074;
},
{
glyphname = u;
lastChange = "2022-02-11 17:25:09 +0000";
layers = (
{
layerId = "FE7E2709-AED5-419E-A84A-17DE8859E7CB";
paths = (
{
closed = 1;
nodes = (
"544 -15 OFFCURVE",
"630 22 OFFCURVE",
"694 83 CURVE",
"694 0 LINE",
"805 0 LINE",
"805 777 LINE",
"694 777 LINE",
"694 342 LINE SMOOTH",
"694 206 OFFCURVE",
"584 96 OFFCURVE",
"448 96 CURVE SMOOTH",
"312 96 OFFCURVE",
"202 206 OFFCURVE",
"202 342 CURVE SMOOTH",
"202 777 LINE",
"91 777 LINE",
"91 342 LINE SMOOTH",
"91 145 OFFCURVE",
"251 -15 OFFCURVE",
"448 -15 CURVE SMOOTH"
);
}
);
width = 911;
}
);
leftKerningGroup = u;
note = u;
rightKerningGroup = a;
rightMetricsKey = "=H";
unicode = 0075;
},
{
glyphname = v;
lastChange = "2022-02-11 17:25:09 +0000";
layers = (
{
layerId = "FE7E2709-AED5-419E-A84A-17DE8859E7CB";
paths = (
{
closed = 1;
nodes = (
"508 0 LINE",
"848 777 LINE",
"727 777 LINE",
"447 138 LINE",
"167 777 LINE",
"46 777 LINE",
"386 0 LINE"
);
}
);
width = 894;
}
);
leftKerningGroup = v;
note = v;
rightKerningGroup = v;
unicode = 0076;
},
{
glyphname = w;
lastChange = "2022-02-11 17:25:09 +0000";
layers = (
{
layerId = "FE7E2709-AED5-419E-A84A-17DE8859E7CB";
paths = (
{
closed = 1;
nodes = (
"464 0 LINE",
"689 616 LINE",
"915 0 LINE",
"1033 0 LINE",
"1318 777 LINE",
"1199 777 LINE",
"974 161 LINE",
"748 777 LINE",
"630 777 LINE",
"405 161 LINE",
"179 777 LINE",
"61 777 LINE",
"345 0 LINE"
);
}
);
width = 1378;
}
);
note = w;
unicode = 0077;
},
{
glyphname = x;
lastChange = "2022-02-11 17:25:09 +0000";
layers = (
{
layerId = "FE7E2709-AED5-419E-A84A-17DE8859E7CB";
paths = (
{
closed = 1;
nodes = (
"201 0 LINE",
"432 298 LINE",
"662 0 LINE",
"803 0 LINE",
"502 389 LINE",
"803 777 LINE",
"662 777 LINE",
"432 479 LINE",
"201 777 LINE",
"61 777 LINE",
"362 389 LINE",
"61 0 LINE"
);
}
);
width = 864;
}
);
note = x;
unicode = 0078;
},
{
glyphname = y;
lastChange = "2022-02-11 17:25:09 +0000";
layers = (
{
layerId = "FE7E2709-AED5-419E-A84A-17DE8859E7CB";
paths = (
{
closed = 1;
nodes = (
"324 -419 LINE",
"848 777 LINE",
"727 777 LINE",
"447 138 LINE",
"167 777 LINE",
"46 777 LINE",
"386 0 LINE",
"203 -419 LINE"
);
}
);
width = 894;
}
);
leftKerningGroup = v;
note = y;
rightKerningGroup = v;
unicode = 0079;
},
{
glyphname = z;
lastChange = "2022-02-11 17:25:09 +0000";
layers = (
{
layerId = "FE7E2709-AED5-419E-A84A-17DE8859E7CB";
paths = (
{
closed = 1;
nodes = (
"778 0 LINE",
"778 111 LINE",
"245 111 LINE",
"778 666 LINE",
"778 777 LINE",
"91 777 LINE",
"91 666 LINE",
"624 666 LINE",
"91 111 LINE",
"91 0 LINE"
);
}
);
width = 869;
}
);
leftKerningGroup = z;
note = z;
rightKerningGroup = z;
unicode = 007A;
},
{
glyphname = zero;
lastChange = "2022-02-11 17:25:09 +0000";
layers = (
{
layerId = "FE7E2709-AED5-419E-A84A-17DE8859E7CB";
paths = (
{
closed = 1;
nodes = (
"659 -15 OFFCURVE",
"823 149 OFFCURVE",
"823 351 CURVE SMOOTH",
"823 729 LINE SMOOTH",
"823 931 OFFCURVE",
"659 1095 OFFCURVE",
"457 1095 CURVE SMOOTH",
"255 1095 OFFCURVE",
"91 931 OFFCURVE",
"91 729 CURVE SMOOTH",
"91 351 LINE SMOOTH",
"91 149 OFFCURVE",
"255 -15 OFFCURVE",
"457 -15 CURVE SMOOTH"
);
},
{
closed = 1;
nodes = (
"316 96 OFFCURVE",
"202 210 OFFCURVE",
"202 351 CURVE SMOOTH",
"202 729 LINE SMOOTH",
"202 870 OFFCURVE",
"316 984 OFFCURVE",
"457 984 CURVE SMOOTH",
"598 984 OFFCURVE",
"712 870 OFFCURVE",
"712 729 CURVE SMOOTH",
"712 351 LINE SMOOTH",
"712 210 OFFCURVE",
"598 96 OFFCURVE",
"457 96 CURVE SMOOTH"
);
}
);
width = 914;
}
);
note = zero;
unicode = 0030;
},
{
glyphname = one;
lastChange = "2022-02-11 17:25:09 +0000";
layers = (
{
layerId = "FE7E2709-AED5-419E-A84A-17DE8859E7CB";
paths = (
{
closed = 1;
nodes = (
"394 0 LINE",
"394 1080 LINE",
"283 1080 LINE",
"101 975 LINE",
"101 847 LINE",
"283 952 LINE",
"283 0 LINE"
);
}
);
width = 561;
}
);
note = one;
unicode = 0031;
},
{
glyphname = two;
lastChange = "2022-02-11 17:25:09 +0000";
layers = (
{
layerId = "FE7E2709-AED5-419E-A84A-17DE8859E7CB";
paths = (
{
closed = 1;
nodes = (
"803 0 LINE",
"803 111 LINE",
"268 111 LINE",
"685 482 LINE SMOOTH",
"760 549 OFFCURVE",
"803 644 OFFCURVE",
"803 744 CURVE SMOOTH",
"803 938 OFFCURVE",
"646 1095 OFFCURVE",
"452 1095 CURVE SMOOTH",
"258 1095 OFFCURVE",
"101 938 OFFCURVE",
"101 744 CURVE",
"212 744 LINE",
"212 877 OFFCURVE",
"320 984 OFFCURVE",
"452 984 CURVE SMOOTH",
"584 984 OFFCURVE",
"692 877 OFFCURVE",
"692 744 CURVE SMOOTH",
"692 676 OFFCURVE",
"663 611 OFFCURVE",
"611 565 CURVE SMOOTH",
"101 111 LINE",
"101 0 LINE"
);
}
);
width = 899;
}
);
note = two;
unicode = 0032;
},
{
glyphname = three;
lastChange = "2022-02-11 17:25:09 +0000";
layers = (
{
layerId = "FE7E2709-AED5-419E-A84A-17DE8859E7CB";
paths = (
{
closed = 1;
nodes = (
"659 -15 OFFCURVE",
"823 126 OFFCURVE",
"823 299 CURVE SMOOTH",
"823 407 OFFCURVE",
"759 502 OFFCURVE",
"661 559 CURVE",
"747 613 OFFCURVE",
"803 700 OFFCURVE",
"803 798 CURVE SMOOTH",
"803 962 OFFCURVE",
"648 1095 OFFCURVE",
"457 1095 CURVE SMOOTH",
"266 1095 OFFCURVE",
"111 962 OFFCURVE",
"111 798 CURVE",
"222 798 LINE",
"222 901 OFFCURVE",
"328 984 OFFCURVE",
"457 984 CURVE SMOOTH",
"587 984 OFFCURVE",
"692 901 OFFCURVE",
"692 798 CURVE SMOOTH",
"692 696 OFFCURVE",
"587 612 OFFCURVE",
"457 612 CURVE SMOOTH",
"397 612 LINE",
"397 501 LINE",
"457 501 LINE SMOOTH",
"598 501 OFFCURVE",
"712 410 OFFCURVE",
"712 299 CURVE SMOOTH",
"712 187 OFFCURVE",
"598 96 OFFCURVE",
"457 96 CURVE SMOOTH",
"316 96 OFFCURVE",
"202 187 OFFCURVE",
"202 299 CURVE",
"91 299 LINE",
"91 126 OFFCURVE",
"255 -15 OFFCURVE",
"457 -15 CURVE SMOOTH"
);
}
);
width = 909;
}
);
note = three;
unicode = 0033;
},
{
glyphname = four;
lastChange = "2022-02-11 17:25:09 +0000";
layers = (
{
layerId = "FE7E2709-AED5-419E-A84A-17DE8859E7CB";
paths = (
{
closed = 1;
nodes = (
"725 0 LINE",
"725 256 LINE",
"900 256 LINE",
"900 367 LINE",
"725 367 LINE",
"725 1080 LINE",
"614 1080 LINE",
"86 367 LINE",
"86 256 LINE",
"614 256 LINE",
"614 0 LINE"
);
},
{
closed = 1;
nodes = (
"614 893 LINE",
"614 367 LINE",
"224 367 LINE"
);
}
);
width = 956;
}
);
note = four;
unicode = 0034;
},
{
glyphname = five;
lastChange = "2022-02-11 17:25:09 +0000";
layers = (
{
layerId = "FE7E2709-AED5-419E-A84A-17DE8859E7CB";
paths = (
{
closed = 1;
nodes = (
"636 -15 OFFCURVE",
"800 149 OFFCURVE",
"800 351 CURVE SMOOTH",
"800 553 OFFCURVE",
"636 717 OFFCURVE",
"434 717 CURVE SMOOTH",
"360 717 OFFCURVE",
"291 695 OFFCURVE",
"234 657 CURVE",
"267 969 LINE",
"760 969 LINE",
"760 1080 LINE",
"167 1080 LINE",
"106 502 LINE",
"229 502 LINE",
"276 565 OFFCURVE",
"350 606 OFFCURVE",
"434 606 CURVE SMOOTH",
"575 606 OFFCURVE",
"689 492 OFFCURVE",
"689 351 CURVE SMOOTH",
"689 210 OFFCURVE",
"575 96 OFFCURVE",
"434 96 CURVE SMOOTH",
"350 96 OFFCURVE",
"276 137 OFFCURVE",
"229 199 CURVE",
"101 199 LINE",
"159 73 OFFCURVE",
"286 -15 OFFCURVE",
"434 -15 CURVE SMOOTH"
);
}
);
width = 891;
}
);
note = five;
unicode = 0035;
},
{
glyphname = six;
lastChange = "2022-02-11 17:25:09 +0000";
layers = (
{
layerId = "FE7E2709-AED5-419E-A84A-17DE8859E7CB";
paths = (
{
closed = 1;
nodes = (
"639 -15 OFFCURVE",
"803 149 OFFCURVE",
"803 351 CURVE SMOOTH",
"803 553 OFFCURVE",
"639 717 OFFCURVE",
"437 717 CURVE SMOOTH",
"408 717 OFFCURVE",
"380 713 OFFCURVE",
"354 707 CURVE",
"578 1080 LINE",
"448 1080 LINE",
"123 539 LINE SMOOTH",
"90 484 OFFCURVE",
"71 420 OFFCURVE",
"71 351 CURVE SMOOTH",
"71 149 OFFCURVE",
"235 -15 OFFCURVE",
"437 -15 CURVE SMOOTH"
);
},
{
closed = 1;
nodes = (
"296 96 OFFCURVE",
"182 210 OFFCURVE",
"182 351 CURVE SMOOTH",
"182 492 OFFCURVE",
"296 606 OFFCURVE",
"437 606 CURVE SMOOTH",
"578 606 OFFCURVE",
"692 492 OFFCURVE",
"692 351 CURVE SMOOTH",
"692 210 OFFCURVE",
"578 96 OFFCURVE",
"437 96 CURVE SMOOTH"
);
}
);
width = 874;
}
);
note = six;
unicode = 0036;
},
{
glyphname = seven;
lastChange = "2022-02-11 17:25:09 +0000";
layers = (
{
layerId = "FE7E2709-AED5-419E-A84A-17DE8859E7CB";
paths = (
{
closed = 1;
nodes = (
"362 0 LINE",
"793 969 LINE",
"793 1080 LINE",
"76 1080 LINE",
"76 969 LINE",
"671 969 LINE",
"241 0 LINE"
);
}
);
width = 869;
}
);
note = seven;
unicode = 0037;
},
{
glyphname = eight;
lastChange = "2022-02-11 17:25:09 +0000";
layers = (
{
layerId = "FE7E2709-AED5-419E-A84A-17DE8859E7CB";
paths = (
{
closed = 1;
nodes = (
"666 -15 OFFCURVE",
"833 127 OFFCURVE",
"833 303 CURVE SMOOTH",
"833 413 OFFCURVE",
"766 511 OFFCURVE",
"665 568 CURVE",
"749 621 OFFCURVE",
"803 706 OFFCURVE",
"803 802 CURVE SMOOTH",
"803 964 OFFCURVE",
"649 1095 OFFCURVE",
"460 1095 CURVE SMOOTH",
"270 1095 OFFCURVE",
"116 964 OFFCURVE",
"116 802 CURVE SMOOTH",
"116 706 OFFCURVE",
"170 621 OFFCURVE",
"254 568 CURVE",
"153 511 OFFCURVE",
"86 413 OFFCURVE",
"86 303 CURVE SMOOTH",
"86 127 OFFCURVE",
"253 -15 OFFCURVE",
"460 -15 CURVE SMOOTH"
);
},
{
closed = 1;
nodes = (
"315 96 OFFCURVE",
"197 189 OFFCURVE",
"197 303 CURVE SMOOTH",
"197 417 OFFCURVE",
"315 509 OFFCURVE",
"460 509 CURVE SMOOTH",
"604 509 OFFCURVE",
"722 417 OFFCURVE",
"722 303 CURVE SMOOTH",
"722 189 OFFCURVE",
"604 96 OFFCURVE",
"460 96 CURVE SMOOTH"
);
},
{
closed = 1;
nodes = (
"331 620 OFFCURVE",
"227 702 OFFCURVE",
"227 802 CURVE SMOOTH",
"227 903 OFFCURVE",
"331 984 OFFCURVE",
"460 984 CURVE SMOOTH",
"588 984 OFFCURVE",
"692 903 OFFCURVE",
"692 802 CURVE SMOOTH",
"692 702 OFFCURVE",
"588 620 OFFCURVE",
"460 620 CURVE SMOOTH"
);
}
);
width = 919;
}
);
note = eight;
unicode = 0038;
},
{
glyphname = nine;
lastChange = "2022-02-11 17:25:09 +0000";
layers = (
{
layerId = "FE7E2709-AED5-419E-A84A-17DE8859E7CB";
paths = (
{
closed = 1;
nodes = (
"426 0 LINE",
"751 541 LINE",
"750 541 LINE",
"784 596 OFFCURVE",
"803 660 OFFCURVE",
"803 729 CURVE SMOOTH",
"803 931 OFFCURVE",
"639 1095 OFFCURVE",
"437 1095 CURVE SMOOTH",
"235 1095 OFFCURVE",
"71 931 OFFCURVE",
"71 729 CURVE SMOOTH",
"71 527 OFFCURVE",
"235 363 OFFCURVE",
"437 363 CURVE SMOOTH",
"465 363 OFFCURVE",
"493 367 OFFCURVE",
"520 373 CURVE",
"296 0 LINE"
);
},
{
closed = 1;
nodes = (
"296 474 OFFCURVE",
"182 588 OFFCURVE",
"182 729 CURVE SMOOTH",
"182 870 OFFCURVE",
"296 984 OFFCURVE",
"437 984 CURVE SMOOTH",
"578 984 OFFCURVE",
"692 870 OFFCURVE",
"692 729 CURVE SMOOTH",
"692 588 OFFCURVE",
"578 474 OFFCURVE",
"437 474 CURVE SMOOTH"
);
}
);
width = 874;
}
);
note = nine;
unicode = 0039;
},
{
glyphname = acute;
lastChange = "2022-02-11 17:25:09 +0000";
layers = (
{
layerId = "FE7E2709-AED5-419E-A84A-17DE8859E7CB";
paths = (
{
closed = 1;
nodes = (
"202 944 LINE",
"348 1201 LINE",
"252 1201 LINE",
"106 944 LINE"
);
}
);
width = 454;
}
);
note = acute;
unicode = "00B4,0301";
},
{
glyphname = quoteleft;
lastChange = "2022-02-11 17:25:09 +0000";
layers = (
{
layerId = "FE7E2709-AED5-419E-A84A-17DE8859E7CB";
paths = (
{
closed = 1;
nodes = (
"212 780 LINE",
"212 835 LINE SMOOTH",
"212 911 OFFCURVE",
"232 985 OFFCURVE",
"270 1050 CURVE",
"174 1105 LINE",
"126 1023 OFFCURVE",
"101 930 OFFCURVE",
"101 835 CURVE SMOOTH",
"101 780 LINE"
);
}
);
width = 346;
}
);
leftKerningGroup = quotedbl;
note = quoteleft;
rightKerningGroup = quotedbl;
unicode = 2018;
},
{
glyphname = quoteright;
lastChange = "2022-02-11 17:25:09 +0000";
layers = (
{
layerId = "FE7E2709-AED5-419E-A84A-17DE8859E7CB";
paths = (
{
closed = 1;
nodes = (
"220 834 OFFCURVE",
"245 927 OFFCURVE",
"245 1022 CURVE SMOOTH",
"245 1077 LINE",
"134 1077 LINE",
"134 1022 LINE SMOOTH",
"134 947 OFFCURVE",
"114 873 OFFCURVE",
"76 807 CURVE",
"172 752 LINE"
);
}
);
width = 346;
}
);
leftKerningGroup = quotedbl;
note = quoteright;
rightKerningGroup = quotedbl;
unicode = 2019;
},
{
glyphname = quotedblleft;
lastChange = "2022-02-11 17:25:09 +0000";
layers = (
{
layerId = "FE7E2709-AED5-419E-A84A-17DE8859E7CB";
paths = (
{
closed = 1;
nodes = (
"207 780 LINE",
"207 835 LINE SMOOTH",
"207 911 OFFCURVE",
"227 985 OFFCURVE",
"265 1050 CURVE",
"169 1105 LINE",
"121 1023 OFFCURVE",
"96 930 OFFCURVE",
"96 835 CURVE SMOOTH",
"96 780 LINE"
);
},
{
closed = 1;
nodes = (
"439 780 LINE",
"439 821 LINE SMOOTH",
"439 897 OFFCURVE",
"459 970 OFFCURVE",
"497 1036 CURVE",
"401 1091 LINE",
"353 1009 OFFCURVE",
"328 916 OFFCURVE",
"328 821 CURVE SMOOTH",
"328 780 LINE"
);
}
);
width = 573;
}
);
leftKerningGroup = quotedbl;
note = quotedblleft;
rightKerningGroup = quotedbl;
unicode = 201C;
},
{
glyphname = quotedblright;
lastChange = "2022-02-11 17:25:09 +0000";
layers = (
{
layerId = "FE7E2709-AED5-419E-A84A-17DE8859E7CB";
paths = (
{
closed = 1;
nodes = (
"452 834 OFFCURVE",
"477 927 OFFCURVE",
"477 1022 CURVE SMOOTH",
"477 1077 LINE",
"366 1077 LINE",
"366 1022 LINE SMOOTH",
"366 947 OFFCURVE",
"346 873 OFFCURVE",
"308 807 CURVE",
"404 752 LINE"
);
},
{
closed = 1;
nodes = (
"220 848 OFFCURVE",
"245 941 OFFCURVE",
"245 1036 CURVE SMOOTH",
"245 1077 LINE",
"134 1077 LINE",
"134 1036 LINE SMOOTH",
"134 961 OFFCURVE",
"114 887 OFFCURVE",
"76 821 CURVE",
"172 766 LINE"
);
}
);
width = 573;
}
);
leftKerningGroup = quotedbl;
note = quotedblright;
rightKerningGroup = quotedbl;
unicode = 201D;
},
{
glyphname = macron;
lastChange = "2022-02-11 17:25:09 +0000";
layers = (
{
layerId = "FE7E2709-AED5-419E-A84A-17DE8859E7CB";
paths = (
{
closed = 1;
nodes = (
"619 1000 LINE",
"619 1083 LINE",
"106 1083 LINE",
"106 1000 LINE"
);
}
);
width = 726;
}
);
note = macron;
unicode = "00AF,0304";
},
{
glyphname = circumflex;
lastChange = "2022-02-11 17:25:09 +0000";
layers = (
{
layerId = "FE7E2709-AED5-419E-A84A-17DE8859E7CB";
paths = (
{
closed = 1;
nodes = (
"215 944 LINE",
"362 1116 LINE",
"508 944 LINE",
"617 944 LINE",
"416 1181 LINE",
"307 1181 LINE",
"106 944 LINE"
);
}
);
width = 723;
}
);
note = circumflex;
unicode = "02C6,0302";
},
{
glyphname = caron;
lastChange = "2022-02-11 17:25:09 +0000";
layers = (
{
layerId = "FE7E2709-AED5-419E-A84A-17DE8859E7CB";
paths = (
{
closed = 1;
nodes = (
"416 944 LINE",
"617 1181 LINE",
"508 1181 LINE",
"362 1008 LINE",
"215 1181 LINE",
"106 1181 LINE",
"307 944 LINE"
);
}
);
width = 723;
}
);
note = caron;
unicode = "02C7,030C";
},
{
glyphname = Chook;
lastChange = "2022-02-11 17:25:09 +0000";
layers = (
{
components = (
{
name = C;
}
);
layerId = "FE7E2709-AED5-419E-A84A-17DE8859E7CB";
paths = (
{
closed = 1;
nodes = (
"879 -419 LINE SMOOTH",
"1019 -419 OFFCURVE",
"1132 -305 OFFCURVE",
"1132 -166 CURVE SMOOTH",
"1132 313 LINE",
"1021 313 LINE",
"1021 -166 LINE SMOOTH",
"1021 -244 OFFCURVE",
"957 -308 OFFCURVE",
"879 -308 CURVE SMOOTH",
"793 -308 LINE",
"793 -419 LINE"
);
}
);
width = 1209;
}
);
note = C;
unicode = A7C4;
},
{
glyphname = Ng;
lastChange = "2022-02-12 05:34:53 +0000";
layers = (
{
layerId = "FE7E2709-AED5-419E-A84A-17DE8859E7CB";
paths = (
{
closed = 1;
nodes = (
"720 -15 LINE SMOOTH",
"860 -15 OFFCURVE",
"973 99 OFFCURVE",
"973 238 CURVE SMOOTH",
"973 1080 LINE",
"862 1080 LINE",
"218 606 LINE",
"218 1080 LINE",
"107 1080 LINE",
"107 525 LINE",
"106 524 LINE",
"107 524 LINE",
"107 0 LINE",
"218 0 LINE",
"218 477 LINE",
"862 945 LINE",
"862 238 LINE SMOOTH",
"862 160 OFFCURVE",
"798 96 OFFCURVE",
"720 96 CURVE SMOOTH",
"634 96 LINE",
"634 -15 LINE"
);
}
);
width = 1079;
}
);
leftMetricsKey = "=H";
rightMetricsKey = "=H";
unicode = 014A;
},
{
glyphname = Zhook;
lastChange = "2022-02-11 17:25:09 +0000";
layers = (
{
components = (
{
name = Z;
}
);
layerId = "FE7E2709-AED5-419E-A84A-17DE8859E7CB";
paths = (
{
closed = 1;
nodes = (
"600 -419 LINE SMOOTH",
"740 -419 OFFCURVE",
"853 -305 OFFCURVE",
"853 -166 CURVE SMOOTH",
"853 111 LINE",
"742 111 LINE",
"742 -166 LINE SMOOTH",
"742 -244 OFFCURVE",
"678 -308 OFFCURVE",
"600 -308 CURVE SMOOTH",
"514 -308 LINE",
"514 -419 LINE"
);
}
);
width = 929;
}
);
note = Z;
unicode = A7C6;
},
{
glyphname = Ii;
lastChange = "2022-02-11 17:25:09 +0000";
layers = (
{
layerId = "FE7E2709-AED5-419E-A84A-17DE8859E7CB";
paths = (
{
closed = 1;
nodes = (
"495 0 LINE",
"495 111 LINE",
"336 111 LINE",
"336 969 LINE",
"495 969 LINE",
"495 1080 LINE",
"66 1080 LINE",
"66 969 LINE",
"225 969 LINE",
"225 111 LINE",
"66 111 LINE",
"66 0 LINE"
);
}
);
width = 566;
}
);
note = t;
unicode = A7AE;
script = latin;
category = Letter;
subCategory = Uppercase;
},
{
glyphname = Shook;
lastChange = "2022-02-11 17:25:09 +0000";
layers = (
{
components = (
{
name = S;
}
);
layerId = "FE7E2709-AED5-419E-A84A-17DE8859E7CB";
paths = (
{
closed = 1;
nodes = (
"405 -419 LINE",
"405 -308 LINE",
"319 -308 LINE SMOOTH",
"241 -308 OFFCURVE",
"177 -244 OFFCURVE",
"177 -166 CURVE SMOOTH",
"177 293 LINE",
"66 293 LINE",
"66 -166 LINE SMOOTH",
"66 -305 OFFCURVE",
"179 -419 OFFCURVE",
"319 -419 CURVE SMOOTH"
);
}
);
width = 970;
}
);
note = S_with_acute;
unicode = A7C5;
script = latin;
category = Letter;
subCategory = Uppercase;
},
{
glyphname = chook;
lastChange = "2022-02-11 17:25:09 +0000";
layers = (
{
components = (
{
name = c;
}
);
layerId = "FE7E2709-AED5-419E-A84A-17DE8859E7CB";
paths = (
{
closed = 1;
nodes = (
"596 -419 LINE SMOOTH",
"736 -419 OFFCURVE",
"849 -305 OFFCURVE",
"849 -166 CURVE SMOOTH",
"849 237 LINE",
"738 237 LINE",
"738 -166 LINE SMOOTH",
"738 -244 OFFCURVE",
"674 -308 OFFCURVE",
"596 -308 CURVE SMOOTH",
"510 -308 LINE",
"510 -419 LINE"
);
}
);
width = 925;
}
);
note = c;
unicode = A794;
},
{
glyphname = ii;
lastChange = "2022-02-11 17:25:09 +0000";
layers = (
{
layerId = "FE7E2709-AED5-419E-A84A-17DE8859E7CB";
paths = (
{
closed = 1;
nodes = (
"495 0 LINE",
"495 111 LINE",
"336 111 LINE",
"336 666 LINE",
"495 666 LINE",
"495 777 LINE",
"66 777 LINE",
"66 666 LINE",
"225 666 LINE",
"225 111 LINE",
"66 111 LINE",
"66 0 LINE"
);
}
);
width = 566;
}
);
note = t;
unicode = 026A;
},
{
glyphname = ng;
lastChange = "2022-02-11 17:25:09 +0000";
layers = (
{
guideLines = (
{
angle = 270;
position = "{587, -379}";
},
{
angle = 90;
position = "{820, -267}";
},
{
angle = 90;
position = "{353, -267}";
}
);
layerId = "FE7E2709-AED5-419E-A84A-17DE8859E7CB";
paths = (
{
closed = 1;
nodes = (
"517 -419 LINE SMOOTH",
"697 -419 OFFCURVE",
"820 -310 OFFCURVE",
"820 -91 CURVE SMOOTH",
"820 435 LINE SMOOTH",
"820 672 OFFCURVE",
"660 792 OFFCURVE",
"463 792 CURVE SMOOTH",
"368 792 OFFCURVE",
"281 755 OFFCURVE",
"217 694 CURVE",
"217 777 LINE",
"106 777 LINE",
"106 0 LINE",
"217 0 LINE",
"217 435 LINE SMOOTH",
"217 571 OFFCURVE",
"328 681 OFFCURVE",
"463 681 CURVE SMOOTH",
"599 681 OFFCURVE",
"709 611 OFFCURVE",
"709 435 CURVE SMOOTH",
"709 -91 LINE SMOOTH",
"709 -249 OFFCURVE",
"635 -308 OFFCURVE",
"517 -308 CURVE SMOOTH",
"421 -308 LINE",
"421 -419 LINE"
);
}
);
width = 912;
}
);
leftMetricsKey = "=H";
rightMetricsKey = "=n";
unicode = 014B;
},
{
glyphname = shook;
lastChange = "2022-02-11 17:25:09 +0000";
layers = (
{
components = (
{
name = s;
}
);
layerId = "FE7E2709-AED5-419E-A84A-17DE8859E7CB";
paths = (
{
closed = 1;
nodes = (
"415 -419 LINE",
"415 -308 LINE",
"329 -308 LINE SMOOTH",
"251 -308 OFFCURVE",
"187 -244 OFFCURVE",
"187 -166 CURVE SMOOTH",
"187 214 LINE",
"76 214 LINE",
"76 -166 LINE SMOOTH",
"76 -305 OFFCURVE",
"189 -419 OFFCURVE",
"329 -419 CURVE SMOOTH"
);
}
);
width = 864;
}
);
note = s_with_caron;
unicode = 0282;
},
{
glyphname = zhook;
lastChange = "2022-02-11 17:25:09 +0000";
layers = (
{
components = (
{
name = z;
}
);
layerId = "FE7E2709-AED5-419E-A84A-17DE8859E7CB";
paths = (
{
closed = 1;
nodes = (
"525 -419 LINE SMOOTH",
"665 -419 OFFCURVE",
"778 -305 OFFCURVE",
"778 -166 CURVE SMOOTH",
"778 111 LINE",
"667 111 LINE",
"667 -166 LINE SMOOTH",
"667 -244 OFFCURVE",
"603 -308 OFFCURVE",
"525 -308 CURVE SMOOTH",
"439 -308 LINE",
"439 -419 LINE"
);
}
);
width = 869;
}
);
note = z_with_caron;
unicode = 1D8E;
},
{
export = 0;
glyphname = idotless;
lastChange = "2022-02-11 17:25:09 +0000";
layers = (
{
layerId = "FE7E2709-AED5-419E-A84A-17DE8859E7CB";
paths = (
{
closed = 1;
nodes = (
"217 0 LINE",
"217 777 LINE",
"106 777 LINE",
"106 0 LINE"
);
}
);
width = 323;
}
);
note = i;
unicode = 0131;
script = latin;
category = Letter;
subCategory = Lowercase;
},
{
glyphname = "Che-cy";
lastChange = "2022-02-11 17:25:09 +0000";
layers = (
{
guideLines = (
{
position = "{521, 409}";
},
{
position = "{459, 738}";
},
{
position = "{521, 409}";
}
);
layerId = "FE7E2709-AED5-419E-A84A-17DE8859E7CB";
paths = (
{
closed = 1;
nodes = (
"757 373 OFFCURVE",
"949 525 OFFCURVE",
"949 792 CURVE SMOOTH",
"949 1080 LINE",
"838 1080 LINE",
"838 792 LINE SMOOTH",
"838 586 OFFCURVE",
"696 484 OFFCURVE",
"520 484 CURVE SMOOTH",
"345 484 OFFCURVE",
"202 586 OFFCURVE",
"202 792 CURVE SMOOTH",
"202 1080 LINE",
"91 1080 LINE",
"91 792 LINE SMOOTH",
"91 525 OFFCURVE",
"283 373 OFFCURVE",
"520 373 CURVE SMOOTH"
);
},
{
closed = 1;
nodes = (
"949 0 LINE",
"949 1080 LINE",
"838 1080 LINE",
"838 0 LINE"
);
}
);
width = 1040;
}
);
unicode = 0427;
},
{
export = 0;
glyphname = "Sha-cy";
lastChange = "2022-02-11 17:26:39 +0000";
layers = (
{
layerId = "FE7E2709-AED5-419E-A84A-17DE8859E7CB";
paths = (
{
closed = 1;
nodes = (
"1303 0 LINE",
"1303 1080 LINE",
"1192 1080 LINE",
"1192 111 LINE",
"757 111 LINE",
"757 1080 LINE",
"646 1080 LINE",
"646 111 LINE",
"217 111 LINE",
"217 1080 LINE",
"106 1080 LINE",
"106 0 LINE"
);
}
);
width = 1409;
}
);
leftMetricsKey = "=H";
note = W;
rightMetricsKey = "=H";
unicode = 0428;
},
{
glyphname = "che-cy";
lastChange = "2022-02-11 17:25:09 +0000";
layers = (
{
guideLines = (
{
position = "{425, 280}";
}
);
layerId = "FE7E2709-AED5-419E-A84A-17DE8859E7CB";
paths = (
{
closed = 1;
nodes = (
"805 0 LINE",
"805 777 LINE",
"694 777 LINE",
"694 627 LINE SMOOTH",
"694 481 OFFCURVE",
"594 391 OFFCURVE",
"448 391 CURVE SMOOTH",
"302 391 OFFCURVE",
"202 481 OFFCURVE",
"202 627 CURVE SMOOTH",
"202 777 LINE",
"91 777 LINE",
"91 627 LINE SMOOTH",
"91 420 OFFCURVE",
"231 280 OFFCURVE",
"448 280 CURVE SMOOTH",
"554 280 OFFCURVE",
"633 314 OFFCURVE",
"694 378 CURVE",
"694 0 LINE"
);
}
);
width = 912;
}
);
unicode = 0447;
},
{
export = 0;
glyphname = "sha-cy";
lastChange = "2022-02-11 17:26:39 +0000";
layers = (
{
layerId = "FE7E2709-AED5-419E-A84A-17DE8859E7CB";
paths = (
{
closed = 1;
nodes = (
"1003 0 LINE",
"1003 777 LINE",
"892 777 LINE",
"892 111 LINE",
"610 111 LINE",
"610 777 LINE",
"499 777 LINE",
"499 111 LINE",
"217 111 LINE",
"217 777 LINE",
"106 777 LINE",
"106 0 LINE"
);
}
);
width = 1109;
}
);
leftMetricsKey = "=H";
note = w;
rightMetricsKey = "=H";
unicode = 0448;
},
{
glyphname = dieresis;
lastChange = "2022-02-11 17:51:02 +0000";
layers = (
{
layerId = "FE7E2709-AED5-419E-A84A-17DE8859E7CB";
paths = (
{
closed = 1;
nodes = (
"247 951 OFFCURVE",
"288 992 OFFCURVE",
"288 1042 CURVE SMOOTH",
"288 1092 OFFCURVE",
"247 1132 OFFCURVE",
"197 1132 CURVE SMOOTH",
"147 1132 OFFCURVE",
"106 1092 OFFCURVE",
"106 1042 CURVE SMOOTH",
"106 992 OFFCURVE",
"147 951 OFFCURVE",
"197 951 CURVE SMOOTH"
);
},
{
closed = 1;
nodes = (
"512 951 OFFCURVE",
"553 992 OFFCURVE",
"553 1042 CURVE SMOOTH",
"553 1092 OFFCURVE",
"512 1132 OFFCURVE",
"462 1132 CURVE SMOOTH",
"412 1132 OFFCURVE",
"372 1092 OFFCURVE",
"372 1042 CURVE SMOOTH",
"372 992 OFFCURVE",
"412 951 OFFCURVE",
"462 951 CURVE SMOOTH"
);
}
